<svg xmlns="http://www.w3.org/2000/svg" version="1.1" xmlns:xlink="http://www.w3.org/1999/xlink" xmlns:svgjs="http://svgjs.dev/svgjs" width="1000" height="1000" viewBox="0 0 1000 1000"><rect width="1000" height="1000" fill="#000000"></rect><g transform="matrix(0.7,0,0,0.7,149.57575757575756,282.1265587044535)"><svg viewBox="0 0 396 247" data-background-color="#ffffff" preserveAspectRatio="xMidYMid meet" height="623" width="1000" xmlns="http://www.w3.org/2000/svg" xmlns:xlink="http://www.w3.org/1999/xlink"><g id="tight-bounds" transform="matrix(1,0,0,1,0.2400000000000091,-0.09999999999999432)"><svg viewBox="0 0 395.52 247.2" height="247.2" width="395.52"><g><svg></svg></g><g><svg viewBox="0 0 395.52 247.2" height="247.2" width="395.52"><mask id="9f994848-470d-4f94-ba0c-3cbd91f7d946"><rect width="395.52" height="247.2" fill="white"></rect><g transform="matrix(1,0,0,1,133.33486725663715,37.08)" id="clone"><svg viewBox="0 0 128.85026548672565 173.04" height="173.04" width="128.85026548672565"><g><svg viewBox="0 0 128.85026548672565 173.04" height="173.04" width="128.85026548672565"><g><svg viewBox="0 0 128.85026548672565 173.04" height="173.04" width="128.85026548672565"><g><svg viewBox="0 0 128.85026548672565 173.04" height="173.04" width="128.85026548672565"><g id="SvgjsG1062"><svg viewBox="0 0 128.85026548672565 173.04" height="173.04" width="128.85026548672565" id="SvgjsSvg1061"><g><svg viewBox="0 0 128.85026548672565 173.04" height="173.04" width="128.85026548672565"><g transform="matrix(1,0,0,1,0,0)"><svg width="128.85026548672565" viewBox="0 -37.79999923706055 30.450000762939453 40.54999923706055" height="173.04" data-palette-color="#233565"><path d="M15.3-0.25Q14.5-0.25 14.5-1.15L14.5-1.15 14.35-16.3Q12.9-16.9 11.48-18.55 10.05-20.2 8-23.55L8-23.55Q6.25-26.4 5.25-28.53 4.25-30.65 3.05-33.95L3.05-33.95Q3-34 3-34.15L3-34.15Q3-34.4 3.23-34.58 3.45-34.75 3.8-34.75L3.8-34.75Q4.2-34.75 4.35-34.58 4.5-34.4 4.58-34.13 4.65-33.85 4.7-33.75L4.7-33.75Q6.4-28.95 9.25-24.25L9.25-24.25Q13.1-17.9 15.2-17.9L15.2-17.9Q16.25-17.9 17.82-19.58 19.4-21.25 21.25-24.3L21.25-24.3Q22.45-26.3 23.45-28.43 24.45-30.55 25.85-33.95L25.85-33.95Q26.05-34.45 26.18-34.63 26.3-34.8 26.6-34.8L26.6-34.8Q27.45-34.8 27.45-34.15L27.45-34.15Q27.45-34 27.3-33.6L27.3-33.6Q25.55-29.45 24.73-27.73 23.9-26 22.5-23.65L22.5-23.65Q18.6-17.25 15.9-16.3L15.9-16.3 16.1-1.2Q16.1-0.25 15.3-0.25L15.3-0.25Z" opacity="1" transform="matrix(1,0,0,1,0,0)" fill="black" class="wordmark-text-0" id="SvgjsPath1060" stroke-width="5" stroke="black" stroke-linejoin="round"></path></svg></g></svg></g></svg></g></svg></g></svg></g></svg></g></svg></g></mask><g mask="url(#9f994848-470d-4f94-ba0c-3cbd91f7d946)"><g><path xmlns="http://www.w3.org/2000/svg" d="M198.154 214.293c-2.8 0-4.2-1.575-4.2-4.725v0l-0.788-79.537c-5.075-2.1-10.097-6.037-15.067-11.812-5.005-5.775-11.095-14.525-18.27-26.25v0c-6.125-9.975-10.937-18.69-14.437-26.145-3.5-7.42-7.35-16.905-11.55-28.454v0c-0.175-0.175-0.263-0.525-0.263-1.05v0c0-0.875 0.403-1.627 1.208-2.258 0.77-0.595 1.767-0.892 2.992-0.892v0c1.4 0 2.362 0.297 2.888 0.892 0.525 0.63 0.927 1.417 1.207 2.363 0.245 0.98 0.455 1.645 0.63 1.995v0c5.95 16.8 13.912 33.425 23.888 49.874v0c13.475 22.225 23.887 33.337 31.237 33.337v0c3.675 0 8.26-2.94 13.755-8.82 5.53-5.845 11.532-14.105 18.007-24.779v0c4.2-7 8.05-14.227 11.55-21.683 3.5-7.42 7.7-17.08 12.6-28.979v0c0.7-1.75 1.277-2.94 1.732-3.57 0.42-0.595 1.155-0.892 2.205-0.893v0c2.975 0 4.462 1.137 4.463 3.413v0c0 0.525-0.263 1.487-0.788 2.887v0c-6.125 14.525-10.622 24.797-13.492 30.817-2.905 6.055-6.807 13.195-11.708 21.42v0c-13.65 22.4-25.2 35.262-34.649 38.587v0l1.05 79.274c0 3.325-1.4 4.987-4.2 4.988z" fill="#ffffff" fill-rule="nonzero" stroke="none" stroke-width="1" stroke-linecap="butt" stroke-linejoin="miter" stroke-miterlimit="10" stroke-dasharray="" stroke-dashoffset="0" font-family="none" font-weight="none" font-size="none" text-anchor="none" style="mix-blend-mode: normal" data-fill-palette-color="tertiary"></path></g></g><g transform="matrix(1,0,0,1,133.33486725663715,37.08)"><svg viewBox="0 0 128.85026548672565 173.04" height="173.04" width="128.85026548672565"><g><svg viewBox="0 0 128.85026548672565 173.04" height="173.04" width="128.85026548672565"><g><svg viewBox="0 0 128.85026548672565 173.04" height="173.04" width="128.85026548672565"><g><svg viewBox="0 0 128.85026548672565 173.04" height="173.04" width="128.85026548672565"><g id="textblocktransform"><svg viewBox="0 0 128.85026548672565 173.04" height="173.04" width="128.85026548672565" id="textblock"><g><svg viewBox="0 0 128.85026548672565 173.04" height="173.04" width="128.85026548672565"><g transform="matrix(1,0,0,1,0,0)"><svg width="128.85026548672565" viewBox="0 -37.79999923706055 30.450000762939453 40.54999923706055" height="173.04" data-palette-color="#233565"><path d="M15.3-0.25Q14.5-0.25 14.5-1.15L14.5-1.15 14.35-16.3Q12.9-16.9 11.48-18.55 10.05-20.2 8-23.55L8-23.55Q6.25-26.4 5.25-28.53 4.25-30.65 3.05-33.95L3.05-33.95Q3-34 3-34.15L3-34.15Q3-34.4 3.23-34.58 3.45-34.75 3.8-34.75L3.8-34.75Q4.2-34.75 4.35-34.58 4.5-34.4 4.58-34.13 4.65-33.85 4.7-33.75L4.7-33.75Q6.4-28.95 9.25-24.25L9.25-24.25Q13.1-17.9 15.2-17.9L15.2-17.9Q16.25-17.9 17.82-19.58 19.4-21.25 21.25-24.3L21.25-24.3Q22.45-26.3 23.45-28.43 24.45-30.55 25.85-33.95L25.85-33.95Q26.05-34.45 26.18-34.63 26.3-34.8 26.6-34.8L26.6-34.8Q27.45-34.8 27.45-34.15L27.45-34.15Q27.45-34 27.3-33.6L27.3-33.6Q25.55-29.45 24.73-27.73 23.9-26 22.5-23.65L22.5-23.65Q18.6-17.25 15.9-16.3L15.9-16.3 16.1-1.2Q16.1-0.25 15.3-0.25L15.3-0.25Z" opacity="1" transform="matrix(1,0,0,1,0,0)" fill="#ffffff" class="wordmark-text-0" data-fill-palette-color="primary" id="text-0"></path></svg></g></svg></g></svg></g></svg></g></svg></g></svg></g></svg></g></svg></g><defs></defs></svg><rect width="395.52" height="247.2" fill="none" stroke="none" visibility="hidden"></rect></g></svg></g></svg>